<svg xmlns="http://www.w3.org/2000/svg" xmlns:xlink="http://www.w3.org/1999/xlink" width="600" height="400" viewBox="0 0 2400 1600">
<defs>
  <clipPath id="clip890">
    <rect x="0" y="0" width="2400" height="1600"></rect>
  </clipPath>
</defs>
<path clip-path="url(#clip890)" d="M0 1600 L2400 1600 L2400 0 L0 0  Z" fill="#ffffff" fill-rule="evenodd" fill-opacity="1"></path>
<defs>
  <clipPath id="clip891">
    <rect x="480" y="0" width="1681" height="1600"></rect>
  </clipPath>
</defs>
<path clip-path="url(#clip890)" d="M192.709 1486.45 L2352.76 1486.45 L2352.76 47.2441 L192.709 47.2441  Z" fill="#ffffff" fill-rule="evenodd" fill-opacity="1"></path>
<defs>
  <clipPath id="clip892">
    <rect x="192" y="47" width="2161" height="1440"></rect>
  </clipPath>
</defs>
<polyline clip-path="url(#clip892)" style="stroke:#000000; stroke-linecap:round; stroke-linejoin:round; stroke-width:2; stroke-opacity:0.1; fill:none" points="227.717,1486.45 227.717,47.2441 "></polyline>
<polyline clip-path="url(#clip892)" style="stroke:#000000; stroke-linecap:round; stroke-linejoin:round; stroke-width:2; stroke-opacity:0.1; fill:none" points="750.225,1486.45 750.225,47.2441 "></polyline>
<polyline clip-path="url(#clip892)" style="stroke:#000000; stroke-linecap:round; stroke-linejoin:round; stroke-width:2; stroke-opacity:0.1; fill:none" points="1272.73,1486.45 1272.73,47.2441 "></polyline>
<polyline clip-path="url(#clip892)" style="stroke:#000000; stroke-linecap:round; stroke-linejoin:round; stroke-width:2; stroke-opacity:0.1; fill:none" points="1795.24,1486.45 1795.24,47.2441 "></polyline>
<polyline clip-path="url(#clip892)" style="stroke:#000000; stroke-linecap:round; stroke-linejoin:round; stroke-width:2; stroke-opacity:0.1; fill:none" points="2317.75,1486.45 2317.75,47.2441 "></polyline>
<polyline clip-path="url(#clip892)" style="stroke:#000000; stroke-linecap:round; stroke-linejoin:round; stroke-width:2; stroke-opacity:0.1; fill:none" points="192.709,1333.88 2352.76,1333.88 "></polyline>
<polyline clip-path="url(#clip892)" style="stroke:#000000; stroke-linecap:round; stroke-linejoin:round; stroke-width:2; stroke-opacity:0.1; fill:none" points="192.709,1050.32 2352.76,1050.32 "></polyline>
<polyline clip-path="url(#clip892)" style="stroke:#000000; stroke-linecap:round; stroke-linejoin:round; stroke-width:2; stroke-opacity:0.1; fill:none" points="192.709,766.761 2352.76,766.761 "></polyline>
<polyline clip-path="url(#clip892)" style="stroke:#000000; stroke-linecap:round; stroke-linejoin:round; stroke-width:2; stroke-opacity:0.1; fill:none" points="192.709,483.203 2352.76,483.203 "></polyline>
<polyline clip-path="url(#clip892)" style="stroke:#000000; stroke-linecap:round; stroke-linejoin:round; stroke-width:2; stroke-opacity:0.1; fill:none" points="192.709,199.645 2352.76,199.645 "></polyline>
<polyline clip-path="url(#clip890)" style="stroke:#000000; stroke-linecap:round; stroke-linejoin:round; stroke-width:4; stroke-opacity:1; fill:none" points="192.709,1486.45 2352.76,1486.45 "></polyline>
<polyline clip-path="url(#clip890)" style="stroke:#000000; stroke-linecap:round; stroke-linejoin:round; stroke-width:4; stroke-opacity:1; fill:none" points="227.717,1486.45 227.717,1467.55 "></polyline>
<polyline clip-path="url(#clip890)" style="stroke:#000000; stroke-linecap:round; stroke-linejoin:round; stroke-width:4; stroke-opacity:1; fill:none" points="750.225,1486.45 750.225,1467.55 "></polyline>
<polyline clip-path="url(#clip890)" style="stroke:#000000; stroke-linecap:round; stroke-linejoin:round; stroke-width:4; stroke-opacity:1; fill:none" points="1272.73,1486.45 1272.73,1467.55 "></polyline>
<polyline clip-path="url(#clip890)" style="stroke:#000000; stroke-linecap:round; stroke-linejoin:round; stroke-width:4; stroke-opacity:1; fill:none" points="1795.24,1486.45 1795.24,1467.55 "></polyline>
<polyline clip-path="url(#clip890)" style="stroke:#000000; stroke-linecap:round; stroke-linejoin:round; stroke-width:4; stroke-opacity:1; fill:none" points="2317.75,1486.45 2317.75,1467.55 "></polyline>
<path clip-path="url(#clip890)" d="M227.717 1517.37 Q224.106 1517.37 222.277 1520.93 Q220.472 1524.47 220.472 1531.6 Q220.472 1538.71 222.277 1542.27 Q224.106 1545.82 227.717 1545.82 Q231.351 1545.82 233.157 1542.27 Q234.986 1538.71 234.986 1531.6 Q234.986 1524.47 233.157 1520.93 Q231.351 1517.37 227.717 1517.37 M227.717 1513.66 Q233.527 1513.66 236.583 1518.27 Q239.662 1522.85 239.662 1531.6 Q239.662 1540.33 236.583 1544.94 Q233.527 1549.52 227.717 1549.52 Q221.907 1549.52 218.828 1544.94 Q215.773 1540.33 215.773 1531.6 Q215.773 1522.85 218.828 1518.27 Q221.907 1513.66 227.717 1513.66 Z" fill="#000000" fill-rule="nonzero" fill-opacity="1"></path><path clip-path="url(#clip890)" d="M728.998 1544.91 L745.317 1544.91 L745.317 1548.85 L723.373 1548.85 L723.373 1544.91 Q726.035 1542.16 730.618 1537.53 Q735.225 1532.88 736.405 1531.53 Q738.651 1529.01 739.53 1527.27 Q740.433 1525.51 740.433 1523.82 Q740.433 1521.07 738.489 1519.33 Q736.568 1517.6 733.466 1517.6 Q731.267 1517.6 728.813 1518.36 Q726.382 1519.13 723.605 1520.68 L723.605 1515.95 Q726.429 1514.82 728.882 1514.24 Q731.336 1513.66 733.373 1513.66 Q738.743 1513.66 741.938 1516.35 Q745.132 1519.03 745.132 1523.52 Q745.132 1525.65 744.322 1527.57 Q743.535 1529.47 741.429 1532.07 Q740.85 1532.74 737.748 1535.95 Q734.646 1539.15 728.998 1544.91 Z" fill="#000000" fill-rule="nonzero" fill-opacity="1"></path><path clip-path="url(#clip890)" d="M765.132 1517.37 Q761.521 1517.37 759.692 1520.93 Q757.887 1524.47 757.887 1531.6 Q757.887 1538.71 759.692 1542.27 Q761.521 1545.82 765.132 1545.82 Q768.766 1545.82 770.572 1542.27 Q772.401 1538.71 772.401 1531.6 Q772.401 1524.47 770.572 1520.93 Q768.766 1517.37 765.132 1517.37 M765.132 1513.66 Q770.942 1513.66 773.998 1518.27 Q777.077 1522.85 777.077 1531.6 Q777.077 1540.33 773.998 1544.94 Q770.942 1549.52 765.132 1549.52 Q759.322 1549.52 756.243 1544.94 Q753.188 1540.33 753.188 1531.6 Q753.188 1522.85 756.243 1518.27 Q759.322 1513.66 765.132 1513.66 Z" fill="#000000" fill-rule="nonzero" fill-opacity="1"></path><path clip-path="url(#clip890)" d="M1260.9 1518.36 L1249.1 1536.81 L1260.9 1536.81 L1260.9 1518.36 M1259.68 1514.29 L1265.56 1514.29 L1265.56 1536.81 L1270.49 1536.81 L1270.49 1540.7 L1265.56 1540.7 L1265.56 1548.85 L1260.9 1548.85 L1260.9 1540.7 L1245.3 1540.7 L1245.3 1536.19 L1259.68 1514.29 Z" fill="#000000" fill-rule="nonzero" fill-opacity="1"></path><path clip-path="url(#clip890)" d="M1288.22 1517.37 Q1284.61 1517.37 1282.78 1520.93 Q1280.97 1524.47 1280.97 1531.6 Q1280.97 1538.71 1282.78 1542.27 Q1284.61 1545.82 1288.22 1545.82 Q1291.85 1545.82 1293.66 1542.27 Q1295.49 1538.71 1295.49 1531.6 Q1295.49 1524.47 1293.66 1520.93 Q1291.85 1517.37 1288.22 1517.37 M1288.22 1513.66 Q1294.03 1513.66 1297.08 1518.27 Q1300.16 1522.85 1300.16 1531.6 Q1300.16 1540.33 1297.08 1544.94 Q1294.03 1549.52 1288.22 1549.52 Q1282.41 1549.52 1279.33 1544.94 Q1276.27 1540.33 1276.27 1531.6 Q1276.27 1522.85 1279.33 1518.27 Q1282.41 1513.66 1288.22 1513.66 Z" fill="#000000" fill-rule="nonzero" fill-opacity="1"></path><path clip-path="url(#clip890)" d="M1780.65 1529.7 Q1777.5 1529.7 1775.65 1531.86 Q1773.82 1534.01 1773.82 1537.76 Q1773.82 1541.49 1775.65 1543.66 Q1777.5 1545.82 1780.65 1545.82 Q1783.79 1545.82 1785.62 1543.66 Q1787.47 1541.49 1787.47 1537.76 Q1787.47 1534.01 1785.62 1531.86 Q1783.79 1529.7 1780.65 1529.7 M1789.93 1515.05 L1789.93 1519.31 Q1788.17 1518.48 1786.36 1518.04 Q1784.58 1517.6 1782.82 1517.6 Q1778.19 1517.6 1775.74 1520.72 Q1773.31 1523.85 1772.96 1530.17 Q1774.33 1528.15 1776.39 1527.09 Q1778.45 1526 1780.92 1526 Q1786.13 1526 1789.14 1529.17 Q1792.17 1532.32 1792.17 1537.76 Q1792.17 1543.08 1789.02 1546.3 Q1785.88 1549.52 1780.65 1549.52 Q1774.65 1549.52 1771.48 1544.94 Q1768.31 1540.33 1768.31 1531.6 Q1768.31 1523.41 1772.2 1518.55 Q1776.09 1513.66 1782.64 1513.66 Q1784.4 1513.66 1786.18 1514.01 Q1787.98 1514.36 1789.93 1515.05 Z" fill="#000000" fill-rule="nonzero" fill-opacity="1"></path><path clip-path="url(#clip890)" d="M1810.23 1517.37 Q1806.62 1517.37 1804.79 1520.93 Q1802.98 1524.47 1802.98 1531.6 Q1802.98 1538.71 1804.79 1542.27 Q1806.62 1545.82 1810.23 1545.82 Q1813.86 1545.82 1815.67 1542.27 Q1817.5 1538.71 1817.5 1531.6 Q1817.5 1524.47 1815.67 1520.93 Q1813.86 1517.37 1810.23 1517.37 M1810.23 1513.66 Q1816.04 1513.66 1819.09 1518.27 Q1822.17 1522.85 1822.17 1531.6 Q1822.17 1540.33 1819.09 1544.94 Q1816.04 1549.52 1810.23 1549.52 Q1804.42 1549.52 1801.34 1544.94 Q1798.28 1540.33 1798.28 1531.6 Q1798.28 1522.85 1801.34 1518.27 Q1804.42 1513.66 1810.23 1513.66 Z" fill="#000000" fill-rule="nonzero" fill-opacity="1"></path><path clip-path="url(#clip890)" d="M2302.62 1532.44 Q2299.29 1532.44 2297.37 1534.22 Q2295.47 1536 2295.47 1539.13 Q2295.47 1542.25 2297.37 1544.03 Q2299.29 1545.82 2302.62 1545.82 Q2305.95 1545.82 2307.88 1544.03 Q2309.8 1542.23 2309.8 1539.13 Q2309.8 1536 2307.88 1534.22 Q2305.98 1532.44 2302.62 1532.44 M2297.94 1530.45 Q2294.94 1529.7 2293.25 1527.64 Q2291.58 1525.58 2291.58 1522.62 Q2291.58 1518.48 2294.52 1516.07 Q2297.48 1513.66 2302.62 1513.66 Q2307.78 1513.66 2310.72 1516.07 Q2313.66 1518.48 2313.66 1522.62 Q2313.66 1525.58 2311.97 1527.64 Q2310.31 1529.7 2307.32 1530.45 Q2310.7 1531.23 2312.57 1533.52 Q2314.47 1535.82 2314.47 1539.13 Q2314.47 1544.15 2311.39 1546.83 Q2308.34 1549.52 2302.62 1549.52 Q2296.9 1549.52 2293.82 1546.83 Q2290.77 1544.15 2290.77 1539.13 Q2290.77 1535.82 2292.67 1533.52 Q2294.57 1531.23 2297.94 1530.45 M2296.23 1523.06 Q2296.23 1525.75 2297.9 1527.25 Q2299.59 1528.76 2302.62 1528.76 Q2305.63 1528.76 2307.32 1527.25 Q2309.03 1525.75 2309.03 1523.06 Q2309.03 1520.38 2307.32 1518.87 Q2305.63 1517.37 2302.62 1517.37 Q2299.59 1517.37 2297.9 1518.87 Q2296.23 1520.38 2296.23 1523.06 Z" fill="#000000" fill-rule="nonzero" fill-opacity="1"></path><path clip-path="url(#clip890)" d="M2332.78 1517.37 Q2329.17 1517.37 2327.34 1520.93 Q2325.54 1524.47 2325.54 1531.6 Q2325.54 1538.71 2327.34 1542.27 Q2329.17 1545.82 2332.78 1545.82 Q2336.42 1545.82 2338.22 1542.27 Q2340.05 1538.71 2340.05 1531.6 Q2340.05 1524.47 2338.22 1520.93 Q2336.42 1517.37 2332.78 1517.37 M2332.78 1513.66 Q2338.59 1513.66 2341.65 1518.27 Q2344.73 1522.85 2344.73 1531.6 Q2344.73 1540.33 2341.65 1544.94 Q2338.59 1549.52 2332.78 1549.52 Q2326.97 1549.52 2323.89 1544.94 Q2320.84 1540.33 2320.84 1531.6 Q2320.84 1522.85 2323.89 1518.27 Q2326.97 1513.66 2332.78 1513.66 Z" fill="#000000" fill-rule="nonzero" fill-opacity="1"></path><polyline clip-path="url(#clip890)" style="stroke:#000000; stroke-linecap:round; stroke-linejoin:round; stroke-width:4; stroke-opacity:1; fill:none" points="192.709,1486.45 192.709,47.2441 "></polyline>
<polyline clip-path="url(#clip890)" style="stroke:#000000; stroke-linecap:round; stroke-linejoin:round; stroke-width:4; stroke-opacity:1; fill:none" points="192.709,1333.88 211.607,1333.88 "></polyline>
<polyline clip-path="url(#clip890)" style="stroke:#000000; stroke-linecap:round; stroke-linejoin:round; stroke-width:4; stroke-opacity:1; fill:none" points="192.709,1050.32 211.607,1050.32 "></polyline>
<polyline clip-path="url(#clip890)" style="stroke:#000000; stroke-linecap:round; stroke-linejoin:round; stroke-width:4; stroke-opacity:1; fill:none" points="192.709,766.761 211.607,766.761 "></polyline>
<polyline clip-path="url(#clip890)" style="stroke:#000000; stroke-linecap:round; stroke-linejoin:round; stroke-width:4; stroke-opacity:1; fill:none" points="192.709,483.203 211.607,483.203 "></polyline>
<polyline clip-path="url(#clip890)" style="stroke:#000000; stroke-linecap:round; stroke-linejoin:round; stroke-width:4; stroke-opacity:1; fill:none" points="192.709,199.645 211.607,199.645 "></polyline>
<path clip-path="url(#clip890)" d="M51.3625 1334.33 L81.0383 1334.33 L81.0383 1338.26 L51.3625 1338.26 L51.3625 1334.33 Z" fill="#000000" fill-rule="nonzero" fill-opacity="1"></path><path clip-path="url(#clip890)" d="M101.131 1319.68 Q97.5197 1319.68 95.691 1323.24 Q93.8854 1326.78 93.8854 1333.91 Q93.8854 1341.02 95.691 1344.58 Q97.5197 1348.13 101.131 1348.13 Q104.765 1348.13 106.571 1344.58 Q108.399 1341.02 108.399 1333.91 Q108.399 1326.78 106.571 1323.24 Q104.765 1319.68 101.131 1319.68 M101.131 1315.97 Q106.941 1315.97 109.996 1320.58 Q113.075 1325.16 113.075 1333.91 Q113.075 1342.64 109.996 1347.25 Q106.941 1351.83 101.131 1351.83 Q95.3206 1351.83 92.2419 1347.25 Q89.1864 1342.64 89.1864 1333.91 Q89.1864 1325.16 92.2419 1320.58 Q95.3206 1315.97 101.131 1315.97 Z" fill="#000000" fill-rule="nonzero" fill-opacity="1"></path><path clip-path="url(#clip890)" d="M121.293 1345.28 L126.177 1345.28 L126.177 1351.16 L121.293 1351.16 L121.293 1345.28 Z" fill="#000000" fill-rule="nonzero" fill-opacity="1"></path><path clip-path="url(#clip890)" d="M140.39 1347.22 L156.709 1347.22 L156.709 1351.16 L134.765 1351.16 L134.765 1347.22 Q137.427 1344.47 142.01 1339.84 Q146.617 1335.19 147.797 1333.84 Q150.043 1331.32 150.922 1329.58 Q151.825 1327.82 151.825 1326.13 Q151.825 1323.38 149.88 1321.64 Q147.959 1319.91 144.857 1319.91 Q142.658 1319.91 140.205 1320.67 Q137.774 1321.44 134.996 1322.99 L134.996 1318.26 Q137.82 1317.13 140.274 1316.55 Q142.728 1315.97 144.765 1315.97 Q150.135 1315.97 153.33 1318.66 Q156.524 1321.34 156.524 1325.83 Q156.524 1327.96 155.714 1329.88 Q154.927 1331.78 152.82 1334.38 Q152.242 1335.05 149.14 1338.26 Q146.038 1341.46 140.39 1347.22 Z" fill="#000000" fill-rule="nonzero" fill-opacity="1"></path><path clip-path="url(#clip890)" d="M50.9921 1050.77 L80.6679 1050.77 L80.6679 1054.71 L50.9921 1054.71 L50.9921 1050.77 Z" fill="#000000" fill-rule="nonzero" fill-opacity="1"></path><path clip-path="url(#clip890)" d="M100.76 1036.12 Q97.1493 1036.12 95.3206 1039.68 Q93.515 1043.22 93.515 1050.35 Q93.515 1057.46 95.3206 1061.03 Q97.1493 1064.57 100.76 1064.57 Q104.395 1064.57 106.2 1061.03 Q108.029 1057.46 108.029 1050.35 Q108.029 1043.22 106.2 1039.68 Q104.395 1036.12 100.76 1036.12 M100.76 1032.41 Q106.571 1032.41 109.626 1037.02 Q112.705 1041.6 112.705 1050.35 Q112.705 1059.08 109.626 1063.69 Q106.571 1068.27 100.76 1068.27 Q94.9502 1068.27 91.8715 1063.69 Q88.816 1059.08 88.816 1050.35 Q88.816 1041.6 91.8715 1037.02 Q94.9502 1032.41 100.76 1032.41 Z" fill="#000000" fill-rule="nonzero" fill-opacity="1"></path><path clip-path="url(#clip890)" d="M120.922 1061.72 L125.807 1061.72 L125.807 1067.6 L120.922 1067.6 L120.922 1061.72 Z" fill="#000000" fill-rule="nonzero" fill-opacity="1"></path><path clip-path="url(#clip890)" d="M136.802 1063.66 L144.441 1063.66 L144.441 1037.3 L136.131 1038.97 L136.131 1034.71 L144.394 1033.04 L149.07 1033.04 L149.07 1063.66 L156.709 1063.66 L156.709 1067.6 L136.802 1067.6 L136.802 1063.66 Z" fill="#000000" fill-rule="nonzero" fill-opacity="1"></path><path clip-path="url(#clip890)" d="M99.5335 752.56 Q95.9224 752.56 94.0937 756.125 Q92.2882 759.666 92.2882 766.796 Q92.2882 773.902 94.0937 777.467 Q95.9224 781.009 99.5335 781.009 Q103.168 781.009 104.973 777.467 Q106.802 773.902 106.802 766.796 Q106.802 759.666 104.973 756.125 Q103.168 752.56 99.5335 752.56 M99.5335 748.856 Q105.344 748.856 108.399 753.463 Q111.478 758.046 111.478 766.796 Q111.478 775.523 108.399 780.129 Q105.344 784.712 99.5335 784.712 Q93.7234 784.712 90.6447 780.129 Q87.5892 775.523 87.5892 766.796 Q87.5892 758.046 90.6447 753.463 Q93.7234 748.856 99.5335 748.856 Z" fill="#000000" fill-rule="nonzero" fill-opacity="1"></path><path clip-path="url(#clip890)" d="M119.695 778.162 L124.58 778.162 L124.58 784.041 L119.695 784.041 L119.695 778.162 Z" fill="#000000" fill-rule="nonzero" fill-opacity="1"></path><path clip-path="url(#clip890)" d="M144.765 752.56 Q141.154 752.56 139.325 756.125 Q137.519 759.666 137.519 766.796 Q137.519 773.902 139.325 777.467 Q141.154 781.009 144.765 781.009 Q148.399 781.009 150.205 777.467 Q152.033 773.902 152.033 766.796 Q152.033 759.666 150.205 756.125 Q148.399 752.56 144.765 752.56 M144.765 748.856 Q150.575 748.856 153.63 753.463 Q156.709 758.046 156.709 766.796 Q156.709 775.523 153.63 780.129 Q150.575 784.712 144.765 784.712 Q138.955 784.712 135.876 780.129 Q132.82 775.523 132.82 766.796 Q132.82 758.046 135.876 753.463 Q138.955 748.856 144.765 748.856 Z" fill="#000000" fill-rule="nonzero" fill-opacity="1"></path><path clip-path="url(#clip890)" d="M100.76 469.002 Q97.1493 469.002 95.3206 472.566 Q93.515 476.108 93.515 483.238 Q93.515 490.344 95.3206 493.909 Q97.1493 497.451 100.76 497.451 Q104.395 497.451 106.2 493.909 Q108.029 490.344 108.029 483.238 Q108.029 476.108 106.2 472.566 Q104.395 469.002 100.76 469.002 M100.76 465.298 Q106.571 465.298 109.626 469.904 Q112.705 474.488 112.705 483.238 Q112.705 491.965 109.626 496.571 Q106.571 501.154 100.76 501.154 Q94.9502 501.154 91.8715 496.571 Q88.816 491.965 88.816 483.238 Q88.816 474.488 91.8715 469.904 Q94.9502 465.298 100.76 465.298 Z" fill="#000000" fill-rule="nonzero" fill-opacity="1"></path><path clip-path="url(#clip890)" d="M120.922 494.603 L125.807 494.603 L125.807 500.483 L120.922 500.483 L120.922 494.603 Z" fill="#000000" fill-rule="nonzero" fill-opacity="1"></path><path clip-path="url(#clip890)" d="M136.802 496.548 L144.441 496.548 L144.441 470.182 L136.131 471.849 L136.131 467.59 L144.394 465.923 L149.07 465.923 L149.07 496.548 L156.709 496.548 L156.709 500.483 L136.802 500.483 L136.802 496.548 Z" fill="#000000" fill-rule="nonzero" fill-opacity="1"></path><path clip-path="url(#clip890)" d="M101.131 185.444 Q97.5197 185.444 95.691 189.008 Q93.8854 192.55 93.8854 199.68 Q93.8854 206.786 95.691 210.351 Q97.5197 213.892 101.131 213.892 Q104.765 213.892 106.571 210.351 Q108.399 206.786 108.399 199.68 Q108.399 192.55 106.571 189.008 Q104.765 185.444 101.131 185.444 M101.131 181.74 Q106.941 181.74 109.996 186.346 Q113.075 190.93 113.075 199.68 Q113.075 208.406 109.996 213.013 Q106.941 217.596 101.131 217.596 Q95.3206 217.596 92.2419 213.013 Q89.1864 208.406 89.1864 199.68 Q89.1864 190.93 92.2419 186.346 Q95.3206 181.74 101.131 181.74 Z" fill="#000000" fill-rule="nonzero" fill-opacity="1"></path><path clip-path="url(#clip890)" d="M121.293 211.045 L126.177 211.045 L126.177 216.925 L121.293 216.925 L121.293 211.045 Z" fill="#000000" fill-rule="nonzero" fill-opacity="1"></path><path clip-path="url(#clip890)" d="M140.39 212.99 L156.709 212.99 L156.709 216.925 L134.765 216.925 L134.765 212.99 Q137.427 210.235 142.01 205.605 Q146.617 200.953 147.797 199.61 Q150.043 197.087 150.922 195.351 Q151.825 193.592 151.825 191.902 Q151.825 189.147 149.88 187.411 Q147.959 185.675 144.857 185.675 Q142.658 185.675 140.205 186.439 Q137.774 187.203 134.996 188.754 L134.996 184.031 Q137.82 182.897 140.274 182.319 Q142.728 181.74 144.765 181.74 Q150.135 181.74 153.33 184.425 Q156.524 187.11 156.524 191.601 Q156.524 193.731 155.714 195.652 Q154.927 197.55 152.82 200.143 Q152.242 200.814 149.14 204.031 Q146.038 207.226 140.39 212.99 Z" fill="#000000" fill-rule="nonzero" fill-opacity="1"></path><polyline clip-path="url(#clip892)" style="stroke:#009af9; stroke-linecap:round; stroke-linejoin:round; stroke-width:4; stroke-opacity:1; fill:none" points="253.843,131.094 279.968,94.0614 306.093,90.349 332.219,120.137 358.344,181.977 384.469,272.85 410.595,388.293 436.72,522.604 462.846,669.107 488.971,820.492 515.096,969.191 541.222,1107.78 567.347,1229.35 593.473,1327.9 619.598,1398.58 645.723,1437.92 671.849,1444.02 697.974,1416.58 724.099,1356.93 750.225,1267.98 776.35,1154.11 802.476,1020.92 828.601,875.048 854.726,723.76 880.852,574.623 906.977,435.085 933.103,312.093 959.228,211.737 985.353,138.955 1011.48,97.3084 1037.6,88.824 1063.73,113.914 1089.85,171.36 1115.98,258.356 1142.11,370.638 1168.23,502.661 1194.36,647.87 1220.48,799.021 1246.61,948.56 1272.73,1089.02 1298.86,1213.39 1324.98,1315.53 1351.11,1390.4 1377.23,1434.34 1403.36,1445.21 1429.48,1422.48 1455.61,1367.25 1481.74,1282.22 1507.86,1171.56 1533.99,1040.73 1560.11,896.228 1586.24,745.25 1612.36,595.347 1638.49,454.011 1664.61,328.279 1690.74,224.385 1716.86,147.445 1742.99,101.224 1769.11,87.9763 1795.24,108.344 1821.37,161.338 1847.49,244.373 1873.62,353.381 1899.74,482.984 1925.87,626.752 1951.99,777.518 1978.12,927.746 2004.24,1069.93 2030.37,1196.98 2056.49,1302.61 2082.62,1381.6 2108.74,1430.09 2134.87,1445.72 2161,1427.72 2187.12,1376.97 2213.25,1295.95 2239.37,1188.62 2265.5,1060.27 2291.62,917.277 "></polyline>
<path clip-path="url(#clip890)" d="M2012.32 198.898 L2280.75 198.898 L2280.75 95.2176 L2012.32 95.2176  Z" fill="#ffffff" fill-rule="evenodd" fill-opacity="1"></path>
<polyline clip-path="url(#clip890)" style="stroke:#000000; stroke-linecap:round; stroke-linejoin:round; stroke-width:4; stroke-opacity:1; fill:none" points="2012.32,198.898 2280.75,198.898 2280.75,95.2176 2012.32,95.2176 2012.32,198.898 "></polyline>
<polyline clip-path="url(#clip890)" style="stroke:#009af9; stroke-linecap:round; stroke-linejoin:round; stroke-width:4; stroke-opacity:1; fill:none" points="2036.32,147.058 2180.32,147.058 "></polyline>
<path clip-path="url(#clip890)" d="M2218.17 166.745 Q2216.36 171.375 2214.65 172.787 Q2212.93 174.199 2210.06 174.199 L2206.66 174.199 L2206.66 170.634 L2209.16 170.634 Q2210.92 170.634 2211.89 169.8 Q2212.87 168.967 2214.05 165.865 L2214.81 163.921 L2204.32 138.412 L2208.84 138.412 L2216.94 158.689 L2225.04 138.412 L2229.55 138.412 L2218.17 166.745 Z" fill="#000000" fill-rule="nonzero" fill-opacity="1"></path><path clip-path="url(#clip890)" d="M2236.85 160.402 L2244.49 160.402 L2244.49 134.037 L2236.18 135.703 L2236.18 131.444 L2244.44 129.778 L2249.11 129.778 L2249.11 160.402 L2256.75 160.402 L2256.75 164.338 L2236.85 164.338 L2236.85 160.402 Z" fill="#000000" fill-rule="nonzero" fill-opacity="1"></path></svg>